<svg xmlns="http://www.w3.org/2000/svg" viewBox="0 0 32 32" fill="none">
<path d="M16.34 16.00 L16.34 16.01 L16.34 16.03 L16.34 16.04 L16.34 16.06 L16.34 16.07 L16.34 16.09 L16.34 16.10 L16.33 16.11 L16.33 16.13 L16.33 16.14 L16.32 16.16 L16.32 16.17 L16.31 16.18 L16.30 16.20 L16.30 16.21 L16.29 16.22 L16.28 16.24 L16.27 16.25 L16.26 16.26 L16.25 16.27 L16.24 16.29 L16.23 16.30 L16.22 16.31 L16.21 16.32 L16.20 16.33 L16.19 16.34 L16.17 16.35 L16.16 16.35 L16.14 16.36 L16.13 16.37 L16.12 16.38 L16.10 16.38 L16.08 16.39 L16.07 16.39 L16.05 16.40 L16.04 16.40 L16.02 16.41 L16.00 16.41 L15.99 16.41 L15.97 16.41 L15.95 16.41 L15.94 16.41 L15.92 16.41 L15.90 16.41 L15.88 16.41 L15.87 16.40 L15.85 16.40 L15.83 16.39 L15.82 16.39 L15.80 16.38 L15.78 16.38 L15.77 16.37 L15.75 16.36 L15.73 16.35 L15.72 16.34 L15.70 16.33 L15.69 16.32 L15.67 16.31 L15.66 16.30 L15.65 16.28 L15.63 16.27 L15.62 16.26 L15.61 16.24 L15.60 16.23 L15.59 16.21 L15.58 16.19 L15.57 16.18 L15.56 16.16 L15.55 16.14 L15.54 16.12 L15.54 16.11 L15.53 16.09 L15.52 16.07 L15.52 16.05 L15.51 16.03 L15.51 16.01 L15.51 15.99 L15.51 15.97 L15.51 15.95 L15.51 15.93 L15.51 15.91 L15.51 15.89 L15.51 15.87 L15.52 15.85 L15.52 15.82 L15.53 15.80 L15.53 15.78 L15.54 15.76 L15.55 15.74 L15.56 15.72 L15.57 15.71 L15.58 15.69 L15.59 15.67 L15.60 15.65 L15.61 15.63 L15.63 15.61 L15.64 15.60 L15.66 15.58 L15.67 15.56 L15.69 15.55 L15.71 15.53 L15.72 15.52 L15.74 15.51 L15.76 15.50 L15.78 15.48 L15.80 15.47 L15.82 15.46 L15.85 15.45 L15.87 15.44 L15.89 15.44 L15.91 15.43 L15.94 15.42 L15.96 15.42 L15.98 15.41 L16.01 15.41 L16.03 15.41 L16.06 15.41 L16.08 15.41 L16.11 15.41 L16.13 15.41 L16.15 15.41 L16.18 15.42 L16.20 15.42 L16.23 15.43 L16.25 15.44 L16.28 15.45 L16.30 15.45 L16.33 15.47 L16.35 15.48 L16.37 15.49 L16.39 15.50 L16.42 15.52 L16.44 15.53 L16.46 15.55 L16.48 15.57 L16.50 15.58 L16.52 15.60 L16.54 15.62 L16.55 15.64 L16.57 15.66 L16.59 15.69 L16.60 15.71 L16.62 15.73 L16.63 15.76 L16.64 15.78 L16.65 15.81 L16.66 15.83 L16.67 15.86 L16.68 15.89 L16.69 15.92 L16.70 15.94 L16.70 15.97 L16.70 16.00 L16.71 16.03 L16.71 16.06 L16.71 16.09 L16.71 16.12 L16.71 16.15 L16.70 16.18 L16.70 16.21 L16.69 16.24 L16.69 16.27 L16.68 16.30 L16.67 16.33 L16.66 16.35 L16.64 16.38 L16.63 16.41 L16.62 16.44 L16.60 16.47 L16.58 16.49 L16.57 16.52 L16.55 16.54 L16.53 16.57 L16.51 16.59 L16.48 16.62 L16.46 16.64 L16.43 16.66 L16.41 16.68 L16.38 16.70 L16.36 16.72 L16.33 16.74 L16.30 16.75 L16.27 16.77 L16.24 16.78 L16.21 16.79 L16.17 16.81 L16.14 16.82 L16.11 16.83 L16.07 16.83 L16.04 16.84 L16.01 16.84 L15.97 16.85 L15.94 16.85 L15.90 16.85 L15.87 16.85 L15.83 16.85 L15.79 16.84 L15.76 16.84 L15.72 16.83 L15.69 16.82 L15.65 16.81 L15.62 16.80 L15.58 16.79 L15.55 16.78 L15.51 16.76 L15.48 16.74 L15.45 16.73 L15.42 16.71 L15.38 16.68 L15.35 16.66 L15.32 16.64 L15.30 16.61 L15.27 16.59 L15.24 16.56 L15.21 16.53 L15.19 16.50 L15.17 16.47 L15.14 16.43 L15.12 16.40 L15.10 16.37 L15.08 16.33 L15.07 16.29 L15.05 16.26 L15.04 16.22 L15.02 16.18 L15.01 16.14 L15.00 16.10 L14.99 16.06 L14.99 16.02 L14.98 15.98 L14.98 15.93 L14.98 15.89 L14.98 15.85 L14.98 15.81 L14.99 15.76 L14.99 15.72 L15.00 15.68 L15.01 15.63 L15.02 15.59 L15.03 15.55 L15.05 15.51 L15.06 15.47 L15.08 15.43 L15.10 15.39 L15.12 15.35 L15.15 15.31 L15.17 15.27 L15.20 15.23 L15.23 15.20 L15.26 15.16 L15.29 15.13 L15.32 15.10 L15.36 15.06 L15.39 15.03 L15.43 15.01 L15.47 14.98 L15.51 14.95 L15.55 14.93 L15.59 14.90 L15.64 14.88 L15.68 14.86 L15.73 14.85 L15.77 14.83 L15.82 14.82 L15.87 14.81 L15.92 14.79 L15.97 14.79 L16.02 14.78 L16.07 14.78 L16.12 14.77 L16.17 14.77 L16.22 14.78 L16.27 14.78 L16.32 14.79 L16.38 14.80 L16.43 14.81 L16.48 14.82 L16.53 14.84 L16.58 14.85 L16.63 14.87 L16.68 14.89 L16.72 14.92 L16.77 14.94 L16.82 14.97 L16.86 15.00 L16.91 15.03 L16.95 15.07 L17.00 15.10 L17.04 15.14 L17.08 15.18 L17.11 15.22 L17.15 15.26 L17.19 15.31 L17.22 15.35 L17.25 15.40 L17.28 15.45 L17.31 15.50 L17.33 15.55 L17.36 15.61 L17.38 15.66 L17.40 15.72 L17.42 15.77 L17.43 15.83 L17.44 15.89 L17.45 15.95 L17.46 16.01 L17.47 16.07 L17.47 16.13 L17.47 16.19 L17.47 16.25 L17.46 16.31 L17.46 16.37 L17.45 16.44 L17.43 16.50 L17.42 16.56 L17.40 16.62 L17.38 16.68 L17.36 16.74 L17.33 16.80 L17.31 16.86 L17.28 16.91 L17.24 16.97 L17.21 17.02 L17.17 17.08 L17.13 17.13 L17.09 17.18 L17.04 17.23 L17.00 17.28 L16.95 17.33 L16.90 17.37 L16.84 17.41 L16.79 17.45 L16.73 17.49 L16.67 17.53 L16.61 17.56 L16.55 17.59 L16.49 17.62 L16.42 17.65 L16.36 17.67 L16.29 17.69 L16.22 17.71 L16.15 17.73 L16.08 17.74 L16.01 17.75 L15.94 17.76 L15.86 17.76 L15.79 17.76 L15.72 17.76 L15.64 17.76 L15.57 17.75 L15.49 17.74 L15.42 17.73 L15.35 17.71 L15.27 17.69 L15.20 17.66 L15.13 17.64 L15.06 17.61 L14.99 17.58 L14.92 17.54 L14.85 17.50 L14.79 17.46 L14.72 17.42 L14.66 17.37 L14.60 17.32 L14.54 17.27 L14.48 17.21 L14.42 17.15 L14.37 17.09 L14.32 17.03 L14.27 16.96 L14.22 16.90 L14.18 16.83 L14.14 16.75 L14.10 16.68 L14.06 16.60 L14.03 16.53 L14.00 16.45 L13.97 16.37 L13.95 16.28 L13.93 16.20 L13.91 16.12 L13.90 16.03 L13.89 15.94 L13.89 15.86 L13.88 15.77 L13.88 15.68 L13.89 15.59 L13.90 15.50 L13.91 15.41 L13.93 15.33 L13.95 15.24 L13.97 15.15 L14.00 15.06 L14.03 14.98 L14.06 14.89 L14.10 14.81 L14.14 14.72 L14.19 14.64 L14.24 14.56 L14.29 14.48 L14.34 14.41 L14.40 14.33 L14.47 14.26 L14.53 14.19 L14.60 14.12 L14.67 14.06 L14.75 13.99 L14.83 13.93 L14.91 13.88 L14.99 13.82 L15.07 13.77 L15.16 13.73 L15.25 13.68 L15.35 13.64 L15.44 13.61 L15.54 13.58 L15.64 13.55 L15.74 13.52 L15.84 13.50 L15.94 13.48 L16.04 13.47 L16.15 13.46 L16.25 13.46 L16.36 13.46 L16.46 13.47 L16.57 13.47 L16.68 13.49 L16.78 13.51 L16.89 13.53 L17.00 13.56 L17.10 13.59 L17.20 13.62 L17.31 13.66 L17.41 13.71 L17.51 13.76 L17.61 13.81 L17.70 13.87 L17.80 13.93 L17.89 14.00 L17.98 14.07 L18.07 14.14 L18.15 14.22 L18.23 14.30 L18.31 14.39 L18.39 14.48 L18.46 14.57 L18.53 14.66 L18.60 14.76 L18.66 14.87 L18.71 14.97 L18.77 15.08 L18.82 15.19 L18.86 15.30 L18.90 15.42 L18.94 15.53 L18.97 15.65 L18.99 15.78 L19.01 15.90 L19.03 16.02 L19.04 16.15 L19.05 16.27 L19.05 16.40 L19.04 16.53 L19.03 16.65 L19.02 16.78 L19.00 16.91 L18.97 17.04 L18.94 17.16 L18.90 17.29 L18.86 17.42 L18.82 17.54 L18.76 17.66 L18.71 17.78 L18.64 17.90 L18.57 18.02 L18.50 18.13 L18.42 18.24 L18.34 18.35 L18.25 18.46 L18.16 18.56 L18.06 18.66 L17.96 18.75 L17.85 18.85 L17.74 18.93 L17.63 19.02 L17.51 19.10 L17.39 19.17 L17.27 19.24 L17.14 19.31 L17.00 19.37 L16.87 19.42 L16.73 19.47 L16.59 19.51 L16.45 19.55 L16.30 19.58 L16.16 19.61 L16.01 19.63 L15.86 19.65 L15.71 19.65 L15.56 19.66 L15.40 19.65 L15.25 19.64 L15.10 19.63 L14.94 19.60 L14.79 19.57 L14.64 19.54 L14.49 19.50 L14.34 19.45 L14.19 19.39 L14.04 19.33 L13.90 19.26 L13.75 19.19 L13.61 19.11 L13.48 19.02 L13.34 18.93 L13.21 18.83 L13.08 18.73 L12.96 18.62 L12.84 18.50 L12.72 18.38" stroke="#6c6a63" stroke-width="1.05" stroke-linecap="round" stroke-linejoin="round"></path>
</svg>